<?xml version="1.0" standalone="no"?>
<!DOCTYPE svg PUBLIC "-//W3C//DTD SVG 20010904//EN"
 "http://www.w3.org/TR/2001/REC-SVG-20010904/DTD/svg10.dtd">
<svg version="1.0" xmlns="http://www.w3.org/2000/svg"
 width="500.000000pt" height="500.000000pt" viewBox="0 0 500.000000 500.000000"
 preserveAspectRatio="xMidYMid meet">
<metadata>
Created by potrace 1.16, written by Peter Selinger 2001-2019
</metadata>
<g transform="translate(0.000000,500.000000) scale(0.100000,-0.100000)"
fill="#000000" stroke="none">
<path d="M2043 3214 c-48 -24 -65 -49 -71 -102 -4 -43 -1 -53 25 -82 39 -43
91 -45 134 -4 91 87 19 242 -88 188z"/>
<path d="M1135 2980 c-5 -15 2 -28 24 -49 16 -15 33 -40 37 -55 9 -38 -32
-114 -84 -151 -43 -31 -49 -51 -20 -69 14 -8 25 -4 55 20 67 54 97 106 101
178 4 62 3 65 -33 105 -41 45 -70 52 -80 21z"/>
<path d="M2925 2651 l-150 -87 -3 -41 -3 -41 130 -81 c72 -45 135 -81 140 -81
6 0 79 42 163 94 147 90 153 95 156 129 l3 35 -134 81 c-74 45 -139 81 -143
80 -5 0 -76 -40 -159 -88z"/>
<path d="M1870 2534 c-118 -69 -221 -129 -229 -133 -18 -11 95 -185 124 -189
11 -1 130 62 275 146 315 184 316 185 152 262 -47 22 -90 40 -96 40 -6 -1
-108 -57 -226 -126z"/>
<path d="M3507 2402 c-293 -168 -393 -230 -384 -238 14 -12 489 -292 511 -300
8 -3 185 93 401 216 335 193 384 224 368 234 -10 7 -35 23 -56 35 l-38 23
-129 -77 c-72 -43 -151 -82 -175 -87 -25 -5 -43 -14 -40 -19 3 -4 -4 -31 -16
-59 l-21 -50 -49 27 c-47 25 -48 27 -29 40 11 8 40 23 64 34 25 11 60 37 78
57 18 21 81 67 141 103 59 35 107 66 107 70 0 5 -42 33 -256 167 l-82 51 -395
-227z"/>
<path d="M2020 1909 c-511 -295 -605 -353 -605 -372 0 -18 37 -43 210 -144
143 -84 220 -123 240 -123 22 0 199 97 625 341 327 188 602 347 610 355 10 10
12 19 5 30 -14 22 -436 263 -460 263 -11 0 -292 -157 -625 -350z m699 213
l-59 -33 -60 33 c-33 18 -60 36 -60 40 0 3 24 19 53 36 l52 30 66 -37 67 -36
-59 -33z m-135 -4 c31 -18 56 -35 56 -38 0 -3 -26 -20 -57 -37 l-58 -32 -58
33 c-32 19 -57 37 -56 42 3 11 89 63 106 63 6 1 36 -14 67 -31z m309 -44 c16
-11 12 -15 -40 -47 -105 -63 -96 -62 -163 -25 -33 18 -60 36 -60 40 0 3 35 26
78 51 l77 45 45 -26 c25 -14 53 -31 63 -38z m-260 -56 c12 -6 39 -22 61 -35
l38 -25 -57 -34 -57 -35 -65 37 -66 36 54 34 c61 38 62 38 92 22z m-293 -44
l62 -36 -51 -29 -51 -30 -64 38 -64 38 47 27 c25 15 49 27 53 27 4 1 35 -15
68 -35z m-113 -65 c61 -35 60 -37 -13 -80 l-47 -27 -59 35 c-33 19 -62 33 -64
30 -3 -3 20 -19 50 -37 31 -17 56 -33 56 -35 0 -2 -21 -15 -46 -29 l-46 -26
-65 36 -65 37 109 63 c59 35 114 64 122 64 7 0 38 -14 68 -31z m203 -55 l62
-36 -51 -29 -51 -30 -64 38 -64 38 47 27 c25 15 49 27 53 27 4 1 35 -15 68
-35z m332 -25 c-7 -7 -600 -352 -650 -378 -19 -10 -29 -8 -68 15 -24 14 -42
29 -39 32 3 3 155 92 337 198 l332 193 48 -27 c26 -15 44 -30 40 -33z m-448
-41 c31 -18 56 -35 56 -38 0 -3 -25 -19 -56 -36 l-56 -31 -64 35 -64 36 32 19
c18 11 42 26 53 33 29 19 37 17 99 -18z m-438 -80 c30 -18 54 -35 54 -38 0 -3
-25 -20 -56 -37 l-55 -33 -64 37 -64 37 52 32 c29 18 58 33 65 33 8 1 38 -14
68 -31z m-93 -103 c22 -15 21 -15 -99 -84 l-91 -52 -62 36 c-35 20 -60 39 -57
42 3 3 49 31 103 63 l98 57 45 -25 c25 -14 53 -31 63 -37z m181 -17 c31 -18
56 -36 56 -40 0 -3 -25 -20 -56 -38 l-55 -31 -65 38 -64 37 57 33 c32 18 61
33 65 33 3 0 31 -15 62 -32z m-130 -80 c31 -18 56 -35 56 -38 0 -3 -35 -24
-78 -48 -84 -47 -82 -47 -163 4 l-42 26 74 44 c41 24 79 44 86 44 6 0 36 -15
67 -32z"/>
</g>
</svg>
